<svg width="160" height="160" viewBox="0 0 160 160" fill="none" xmlns="http://www.w3.org/2000/svg">
<circle cx="79.9994" cy="80.0001" r="79.9994" fill="#A478FF"/>
<mask id="mask0_821_1757" style="mask-type:alpha" maskUnits="userSpaceOnUse" x="0" y="0" width="160" height="160">
<circle cx="79.9994" cy="80.0001" r="79.9994" fill="#A478FF"/>
</mask>
<g mask="url(#mask0_821_1757)">
<path d="M120.998 37.4093L111.473 20.912C109.873 18.1399 110.817 14.5907 113.594 12.987L130.075 3.47171C132.846 1.87216 136.394 2.81811 137.999 5.59728L147.524 22.0946C149.124 24.8667 148.18 28.4159 145.403 30.0196L128.922 39.5349C126.151 41.1344 122.602 40.1885 120.998 37.4093Z" fill="#DEFF13"/>
<path d="M33.119 47.2067L22.6367 159.499L134.763 169.954L145.246 57.6617L33.119 47.2067Z" fill="#0C0D0D"/>
<path fill-rule="evenodd" clip-rule="evenodd" d="M73.9929 154.641C74.6837 154.641 75.2437 155.201 75.2437 155.892V255.095C75.2437 255.786 74.6837 256.346 73.9929 256.346C73.3022 256.346 72.7422 255.786 72.7422 255.095V155.892C72.7422 155.201 73.3022 154.641 73.9929 154.641Z" fill="#0C0D0D"/>
<path d="M70.0211 87.7025C70.6807 87.9077 71.0491 88.6087 70.8439 89.2683C63.6119 112.522 69.7159 127.538 77.4804 136.757C81.3887 141.398 85.7512 144.607 89.1413 146.656C90.8346 147.679 92.2798 148.41 93.2961 148.883C93.804 149.119 94.2042 149.29 94.474 149.402C94.6089 149.457 94.7111 149.498 94.7778 149.524C94.8112 149.537 94.8357 149.546 94.8509 149.552L94.8668 149.558L94.8685 149.558C95.517 149.796 95.8496 150.515 95.6115 151.164C95.3734 151.812 94.6547 152.145 94.0063 151.907L94.4374 150.732C94.0063 151.907 94.0045 151.906 94.0045 151.906L94.0018 151.905L93.9937 151.902L93.9668 151.892C93.9441 151.883 93.9122 151.871 93.8712 151.855C93.7893 151.823 93.6715 151.777 93.5206 151.714C93.2189 151.59 92.7847 151.404 92.2411 151.151C91.1543 150.645 89.628 149.873 87.8474 148.797C84.2899 146.646 79.6955 143.271 75.567 138.369C67.2577 128.502 60.9679 112.6 68.4553 88.5254C68.6605 87.8658 69.3615 87.4974 70.0211 87.7025Z" fill="#0C0D0D"/>
<path d="M105.429 87.4875C105.429 98.0284 96.5216 106.58 85.5346 106.58C74.5476 106.58 65.6406 98.0347 65.6406 87.4875" stroke="white" stroke-width="2.43532" stroke-miterlimit="10" stroke-linecap="round"/>
<path d="M81.016 78.8665H72.2812V87.6154H81.016V78.8665Z" fill="white"/>
<path d="M98.516 78.8665H89.7812V87.6154H98.516V78.8665Z" fill="white"/>
</g>
<path d="M23.5579 38.0341C24.1355 38.4129 24.2967 39.1883 23.9179 39.7659C10.5625 60.1293 12.2959 76.2454 17.2216 87.2464C19.7011 92.7839 23.0114 97.07 25.7062 99.9733C27.0523 101.423 28.2404 102.524 29.0872 103.258C29.5105 103.625 29.848 103.9 30.0767 104.081C30.191 104.172 30.2782 104.239 30.3351 104.282C30.3636 104.304 30.3846 104.32 30.3977 104.329L30.4113 104.34L30.4128 104.341C30.9706 104.748 31.0925 105.531 30.685 106.088C30.2776 106.646 29.4951 106.768 28.9373 106.361L29.6751 105.351C28.9373 106.361 28.9358 106.359 28.9358 106.359L28.9334 106.358L28.9265 106.353L28.9034 106.336C28.884 106.321 28.8566 106.301 28.8216 106.274C28.7517 106.221 28.6513 106.143 28.5234 106.042C28.2675 105.839 27.9014 105.541 27.4485 105.148C26.5429 104.363 25.2882 103.2 23.8729 101.675C21.0449 98.6285 17.5577 94.118 14.9386 88.2686C9.66716 76.4957 7.99904 59.4766 21.8261 38.394C22.2049 37.8164 22.9803 37.6553 23.5579 38.0341Z" fill="#0C0D0D"/>
<path d="M29.7708 36.7824C37.1681 38.9011 44.8762 34.6283 46.9938 27.2351C49.1113 19.842 44.8341 12.1363 37.4368 10.0176C30.0395 7.89881 22.3314 12.1717 20.2139 19.5648C18.0963 26.9579 22.3735 34.6636 29.7708 36.7824Z" fill="#0C0D0D"/>
</svg>
