<svg aria-roledescription="sankey" role="graphics-document document" viewBox="0 0 600 401.89593505859375" height="401.89593505859375" xmlns="http://www.w3.org/2000/svg" width="600" id="container"><style>#container{font-family:"trebuchet ms",verdana,arial,sans-serif;font-size:16px;fill:#333;}#container .error-icon{fill:#552222;}#container .error-text{fill:#552222;stroke:#552222;}#container .edge-thickness-normal{stroke-width:2px;}#container .edge-thickness-thick{stroke-width:3.5px;}#container .edge-pattern-solid{stroke-dasharray:0;}#container .edge-pattern-dashed{stroke-dasharray:3;}#container .edge-pattern-dotted{stroke-dasharray:2;}#container .marker{fill:#333333;stroke:#333333;}#container .marker.cross{stroke:#333333;}#container svg{font-family:"trebuchet ms",verdana,arial,sans-serif;font-size:16px;}#container :root{--mermaid-font-family:"trebuchet ms",verdana,arial,sans-serif;}</style><g></g><g class="nodes"><g y="0" x="0" transform="translate(0,0)" id="node-1" class="node"><rect fill="#4e79a7" width="10" height="68.96451425247237"></rect></g><g y="154.1535776614311" x="295" transform="translate(295,154.1535776614311)" id="node-2" class="node"><rect fill="#f28e2c" width="10" height="136.30017452006985"></rect></g><g y="0" x="295" transform="translate(295,0)" id="node-3" class="node"><rect fill="#e15759" width="10" height="144.15357766143111"></rect></g><g y="0" x="590" transform="translate(590,0)" id="node-4" class="node"><rect fill="#76b7b2" width="10" height="39.86329261198369"></rect></g><g y="78.96451425247237" x="0" transform="translate(0,78.96451425247237)" id="node-5" class="node"><rect fill="#59a14f" width="10" height="47.33856893542756"></rect></g><g y="133.5049447353112" x="590" transform="translate(590,133.5049447353112)" id="node-6" class="node"><rect fill="#edc949" width="10" height="43.00465386852821"></rect></g><g y="136.30308318789992" x="0" transform="translate(0,136.30308318789992)" id="node-7" class="node"><rect fill="#af7aa1" width="10" height="52.03606748109368"></rect></g><g y="198.3391506689936" x="0" transform="translate(0,198.3391506689936)" id="node-8" class="node"><rect fill="#ff9da7" width="10" height="36.518324607329816"></rect></g><g y="49.863292611983695" x="590" transform="translate(590,49.863292611983695)" id="node-9" class="node"><rect fill="#9c755f" width="10" height="33.52239674229203"></rect></g><g y="93.38568935427573" x="590" transform="translate(590,93.38568935427573)" id="node-10" class="node"><rect fill="#bab0ab" width="10" height="30.119255381035472"></rect></g><g y="199.41826643397323" x="590" transform="translate(590,199.41826643397323)" id="node-11" class="node"><rect fill="#4e79a7" width="10" height="28.94124490983134"></rect></g><g y="270.695171611402" x="0" transform="translate(0,270.695171611402)" id="node-12" class="node"><rect fill="#f28e2c" width="10" height="22.39674229203024"></rect></g><g y="303.0919139034322" x="0" transform="translate(0,303.0919139034322)" id="node-13" class="node"><rect fill="#e15759" width="10" height="21.364165212332807"></rect></g><g y="244.8574752763234" x="0" transform="translate(0,244.8574752763234)" id="node-14" class="node"><rect fill="#76b7b2" width="10" height="15.837696335078562"></rect></g><g y="300.45375218150093" x="295" transform="translate(295,300.45375218150093)" id="node-15" class="node"><rect fill="#59a14f" width="10" height="21.742292030250212"></rect></g><g y="298.47876672484006" x="590" transform="translate(590,298.47876672484006)" id="node-16" class="node"><rect fill="#edc949" width="10" height="14.921465968586347"></rect></g><g y="254.67132053519492" x="590" transform="translate(590,254.67132053519492)" id="node-17" class="node"><rect fill="#af7aa1" width="10" height="14.892379290285021"></rect></g><g y="334.456079115765" x="0" transform="translate(0,334.456079115765)" id="node-18" class="node"><rect fill="#ff9da7" width="10" height="9.802210587550917"></rect></g><g y="380.00290866783024" x="295" transform="translate(295,380.00290866783024)" id="node-19" class="node"><rect fill="#9c755f" width="10" height="19.99709133216993"></rect></g><g y="349.46771378708564" x="295" transform="translate(295,349.46771378708564)" id="node-20" class="node"><rect fill="#bab0ab" width="10" height="20.535194880744598"></rect></g><g y="279.56369982547994" x="590" transform="translate(590,279.56369982547994)" id="node-21" class="node"><rect fill="#4e79a7" width="10" height="8.915066899360113"></rect></g><g y="238.35951134380457" x="590" transform="translate(590,238.35951134380457)" id="node-22" class="node"><rect fill="#f28e2c" width="10" height="6.311809191390353"></rect></g><g y="337.90866783013377" x="590" transform="translate(590,337.90866783013377)" id="node-23" class="node"><rect fill="#e15759" width="10" height="7.620709714950522"></rect></g><g y="323.4002326934264" x="590" transform="translate(590,323.4002326934264)" id="node-24" class="node"><rect fill="#76b7b2" width="10" height="4.508435136707362"></rect></g><g y="388.6183827806863" x="590" transform="translate(590,388.6183827806863)" id="node-25" class="node"><rect fill="#59a14f" width="10" height="8.755090168702736"></rect></g><g y="355.5293775450843" x="590" transform="translate(590,355.5293775450843)" id="node-26" class="node"><rect fill="#edc949" width="10" height="7.271669575334499"></rect></g><g y="332.19604421175114" x="295" transform="translate(295,332.19604421175114)" id="node-27" class="node"><rect fill="#af7aa1" width="10" height="7.271669575334499"></rect></g><g y="372.8010471204188" x="590" transform="translate(590,372.8010471204188)" id="node-28" class="node"><rect fill="#ff9da7" width="10" height="5.817335660267531"></rect></g><g y="186.5095986038394" x="590" transform="translate(590,186.5095986038394)" id="node-29" class="node"><rect fill="#9c755f" width="10" height="2.9086678301338225"></rect></g></g><g font-size="14" font-family="sans-serif" class="node-labels"><text text-anchor="start" dy="0.35em" y="34.482257126236185" x="16">Plomba</text><text text-anchor="start" dy="0.35em" y="222.303664921466" x="311">Bez patologie</text><text text-anchor="start" dy="0.35em" y="72.07678883071556" x="311">Zubny kaz</text><text text-anchor="end" dy="0.35em" y="19.931646305991844" x="584">Urobit plombu</text><text text-anchor="start" dy="0.35em" y="102.63379872018615" x="16">Zub bez zasahu</text><text text-anchor="end" dy="0.35em" y="155.0072716695753" x="584">Bez zasahu</text><text text-anchor="start" dy="0.35em" y="162.32111692844677" x="16">Korenova vypln</text><text text-anchor="start" dy="0.35em" y="216.5983129726585" x="16">Korunka</text><text text-anchor="end" dy="0.35em" y="66.6244909831297" x="584">Nechat tak</text><text text-anchor="end" dy="0.35em" y="108.44531704479346" x="584">Endodonticke osetrenie</text><text text-anchor="end" dy="0.35em" y="213.8888888888889" x="584">Extrahovat</text><text text-anchor="start" dy="0.35em" y="281.8935427574171" x="16">Pilierovy zub</text><text text-anchor="start" dy="0.35em" y="313.77399650959865" x="16">Implant</text><text text-anchor="start" dy="0.35em" y="252.77632344386268" x="16">Umely zub</text><text text-anchor="start" dy="0.35em" y="311.324898196626" x="311">Resorpcia korena</text><text text-anchor="end" dy="0.35em" y="305.9394997091332" x="584">Paradontalna liecba</text><text text-anchor="end" dy="0.35em" y="262.11751018033743" x="584">Nasadit korunku</text><text text-anchor="start" dy="0.35em" y="339.3571844095405" x="16">Bridge</text><text text-anchor="start" dy="0.35em" y="390.0014543339152" x="311">Periodontitis</text><text text-anchor="start" dy="0.35em" y="359.73531122745794" x="311">Periapikalna radiolucencia</text><text text-anchor="end" dy="0.35em" y="284.02123327516" x="584">Ustna hygiena</text><text text-anchor="end" dy="0.35em" y="241.51541593949975" x="584">Vytvorit pilierovy zub</text><text text-anchor="end" dy="0.35em" y="341.719022687609" x="584">Chirurgicka liecba</text><text text-anchor="end" dy="0.35em" y="325.6544502617801" x="584">Nasadit mostik</text><text text-anchor="end" dy="0.35em" y="392.9959278650377" x="584">Odstranovanie zubneho kamena</text><text text-anchor="end" dy="0.35em" y="359.16521233275154" x="584">Ortodonticka liecba</text><text text-anchor="start" dy="0.35em" y="335.8318789994184" x="311">Perikoralna lezia</text><text text-anchor="end" dy="0.35em" y="375.70971495055255" x="584">Chemicka liecba</text><text text-anchor="end" dy="0.35em" y="187.96393251890632" x="584">Nasadit implantat</text></g><g stroke-opacity="0.5" fill="none" class="links"><g style="mix-blend-mode: multiply;" class="link"><path stroke-width="29.086678301337987" stroke="#4e79a7" d="M10,43.63001745200698C152.5,43.63001745200698,152.5,168.69691681210008,295,168.69691681210008"></path></g><g style="mix-blend-mode: multiply;" class="link"><path stroke-width="29.086678301337987" stroke="#e15759" d="M305,14.543339150668993C447.5,14.543339150668993,447.5,14.543339150668993,590,14.543339150668993"></path></g><g style="mix-blend-mode: multiply;" class="link"><path stroke-width="29.086678301337987" stroke="#4e79a7" d="M10,14.543339150668993C152.5,14.543339150668993,152.5,14.543339150668993,295,14.543339150668993"></path></g><g style="mix-blend-mode: multiply;" class="link"><path stroke-width="29.086678301337987" stroke="#59a14f" d="M10,93.50785340314137C152.5,93.50785340314137,152.5,43.63001745200698,295,43.63001745200698"></path></g><g style="mix-blend-mode: multiply;" class="link"><path stroke-width="29.086678301337987" stroke="#e15759" d="M305,87.98720186154742C447.5,87.98720186154742,447.5,148.0482838859802,590,148.0482838859802"></path></g><g style="mix-blend-mode: multiply;" class="link"><path stroke-width="29.086678301337987" stroke="#af7aa1" d="M10,166.91681210005817C152.5,166.91681210005817,152.5,197.78359511343808,295,197.78359511343808"></path></g><g style="mix-blend-mode: multiply;" class="link"><path stroke-width="29.086678301337987" stroke="#ff9da7" d="M10,214.49680046538685C152.5,214.49680046538685,152.5,226.87027341477608,295,226.87027341477608"></path></g><g style="mix-blend-mode: multiply;" class="link"><path stroke-width="22.36765561372891" stroke="#e15759" d="M305,40.27050610820244C447.5,40.27050610820244,447.5,61.04712041884815,590,61.04712041884815"></path></g><g style="mix-blend-mode: multiply;" class="link"><path stroke-width="21.98952879581152" stroke="#e15759" d="M305,62.44909831297266C447.5,62.44909831297266,447.5,104.38045375218148,590,104.38045375218148"></path></g><g style="mix-blend-mode: multiply;" class="link"><path stroke-width="17.59744037230948" stroke="#e15759" d="M305,112.78359511343804C447.5,112.78359511343804,447.5,208.21698662012798,590,208.21698662012798"></path></g><g style="mix-blend-mode: multiply;" class="link"><path stroke-width="16.57940663176265" stroke="#f28e2c" d="M10,280.43920884235024C152.5,280.43920884235024,152.5,261.17801047120423,295,261.17801047120423"></path></g><g style="mix-blend-mode: multiply;" class="link"><path stroke-width="16.07038976148924" stroke="#af7aa1" d="M10,144.33827806864454C152.5,144.33827806864454,152.5,66.20855148342059,295,66.20855148342059"></path></g><g style="mix-blend-mode: multiply;" class="link"><path stroke-width="15.546829552065153" stroke="#e15759" d="M10,312.3196625945317C152.5,312.3196625945317,152.5,277.24112856311814,295,277.24112856311814"></path></g><g style="mix-blend-mode: multiply;" class="link"><path stroke-width="11.474694589877837" stroke="#76b7b2" d="M10,252.04915648632925C152.5,252.04915648632925,152.5,247.150959860384,295,247.150959860384"></path></g><g style="mix-blend-mode: multiply;" class="link"><path stroke-width="9.220477021524141" stroke="#59a14f" d="M10,112.66143106457243C152.5,112.66143106457243,152.5,308.85980221058765,295,308.85980221058765"></path></g><g style="mix-blend-mode: multiply;" class="link"><path stroke-width="8.347876672484002" stroke="#f28e2c" d="M305,186.847004072135C447.5,186.847004072135,447.5,304.10703897614894,590,304.10703897614894"></path></g><g style="mix-blend-mode: multiply;" class="link"><path stroke-width="7.984293193717278" stroke="#e15759" d="M305,127.40692262943571C447.5,127.40692262943571,447.5,258.66346713205354,590,258.66346713205354"></path></g><g style="mix-blend-mode: multiply;" class="link"><path stroke-width="7.693426410703897" stroke="#59a14f" d="M305,309.56515415939504C447.5,309.56515415939504,447.5,166.43833624200116,590,166.43833624200116"></path></g><g style="mix-blend-mode: multiply;" class="link"><path stroke-width="6.79173938336242" stroke="#f28e2c" d="M305,163.06137289121585C447.5,163.06137289121585,447.5,75.62681791739382,590,75.62681791739382"></path></g><g style="mix-blend-mode: multiply;" class="link"><path stroke-width="5.511925538103548" stroke="#f28e2c" d="M305,156.90954043048285C447.5,156.90954043048285,447.5,31.84264107038976,590,31.84264107038976"></path></g><g style="mix-blend-mode: multiply;" class="link"><path stroke-width="5.439208842350204" stroke="#ff9da7" d="M10,338.63001745200705C152.5,338.63001745200705,152.5,287.73414776032587,295,287.73414776032587"></path></g><g style="mix-blend-mode: multiply;" class="link"><path stroke-width="4.9011052937754505" stroke="#f28e2c" d="M305,172.67452006980807C447.5,172.67452006980807,447.5,219.46625945317044,590,219.46625945317044"></path></g><g style="mix-blend-mode: multiply;" class="link"><path stroke-width="4.682955206515416" stroke="#59a14f" d="M10,123.96160558464223C152.5,123.96160558464223,152.5,383.79872018615487,295,383.79872018615487"></path></g><g style="mix-blend-mode: multiply;" class="link"><path stroke-width="4.0866783013379875" stroke="#4e79a7" d="M10,65.46684118673647C152.5,65.46684118673647,152.5,351.51105293775464,295,351.51105293775464"></path></g><g style="mix-blend-mode: multiply;" class="link"><path stroke-width="4.028504944735311" stroke="#e15759" d="M305,133.41332169866197C447.5,133.41332169866197,447.5,281.5779522978476,590,281.5779522978476"></path></g><g style="mix-blend-mode: multiply;" class="link"><path stroke-width="3.7958115183246073" stroke="#4e79a7" d="M10,60.07126236183828C152.5,60.07126236183828,152.5,302.35165794066324,295,302.35165794066324"></path></g><g style="mix-blend-mode: multiply;" class="link"><path stroke-width="3.6649214659685865" stroke="#9c755f" d="M305,390.8958696916814C447.5,390.8958696916814,447.5,311.5677719604422,590,311.5677719604422"></path></g><g style="mix-blend-mode: multiply;" class="link"><path stroke-width="3.0250145433391507" stroke="#f28e2c" d="M305,176.63757998836536C447.5,176.63757998836536,447.5,241.70447934845842,590,241.70447934845842"></path></g><g style="mix-blend-mode: multiply;" class="link"><path stroke-width="2.981384525887144" stroke="#bab0ab" d="M305,355.32140779522996C447.5,355.32140779522996,447.5,173.23007562536358,590,173.23007562536358"></path></g><g style="mix-blend-mode: multiply;" class="link"><path stroke-width="2.89412449098313" stroke="#59a14f" d="M10,120.17306573589296C152.5,120.17306573589296,152.5,355.0014543339152,295,355.0014543339152"></path></g><g style="mix-blend-mode: multiply;" class="link"><path stroke-width="2.545084351367074" stroke="#f28e2c" d="M305,179.42262943571848C447.5,179.42262943571848,447.5,263.92815590459577,590,263.92815590459577"></path></g><g style="mix-blend-mode: multiply;" class="link"><path stroke-width="2.515997673065736" stroke="#af7aa1" d="M10,185.62681791739385C152.5,185.62681791739385,152.5,357.70651541593963,295,357.70651541593963"></path></g><g style="mix-blend-mode: multiply;" class="link"><path stroke-width="2.356020942408377" stroke="#59a14f" d="M305,301.6317626527051C447.5,301.6317626527051,447.5,35.776614310645726,590,35.776614310645726"></path></g><g style="mix-blend-mode: multiply;" class="link"><path stroke-width="2.31239092495637" stroke="#f28e2c" d="M305,167.61343804537526C447.5,167.61343804537526,447.5,116.53141361256543,590,116.53141361256543"></path></g><g style="mix-blend-mode: multiply;" class="link"><path stroke-width="1.9778941244909831" stroke="#f28e2c" d="M305,181.68411867364753C447.5,181.68411867364753,447.5,284.5811518324607,590,284.5811518324607"></path></g><g style="mix-blend-mode: multiply;" class="link"><path stroke-width="1.9778941244909831" stroke="#59a14f" d="M305,314.4008144269925C447.5,314.4008144269925,447.5,222.90575916230367,590,222.90575916230367"></path></g><g style="mix-blend-mode: multiply;" class="link"><path stroke-width="1.8324607329842932" stroke="#e15759" d="M305,122.49854566608492C447.5,122.49854566608492,447.5,239.27574171029673,590,239.27574171029673"></path></g><g style="mix-blend-mode: multiply;" class="link"><path stroke-width="1.8033740546829553" stroke="#f28e2c" d="M305,193.52239674229207C447.5,193.52239674229207,447.5,340.2646887725422,590,340.2646887725422"></path></g><g style="mix-blend-mode: multiply;" class="link"><path stroke-width="1.7888307155322862" stroke="#9c755f" d="M305,385.2603257707971C447.5,385.2603257707971,447.5,175.6151832460733,590,175.6151832460733"></path></g><g style="mix-blend-mode: multiply;" class="link"><path stroke-width="1.6143106457242582" stroke="#ff9da7" d="M10,199.1463059918557C152.5,199.1463059918557,152.5,75.05090168702735,295,75.05090168702735"></path></g><g style="mix-blend-mode: multiply;" class="link"><path stroke-width="1.5997673065735893" stroke="#f28e2c" d="M305,191.8208260616638C447.5,191.8208260616638,447.5,325.6544502617801,590,325.6544502617801"></path></g><g style="mix-blend-mode: multiply;" class="link"><path stroke-width="1.5561372891215823" stroke="#bab0ab" d="M305,357.59016870273433C447.5,357.59016870273433,447.5,226.12710878417684,590,226.12710878417684"></path></g><g style="mix-blend-mode: multiply;" class="link"><path stroke-width="1.4834205933682374" stroke="#f28e2c" d="M305,198.0744618964515C447.5,198.0744618964515,447.5,390.81442699243735,590,390.81442699243735"></path></g><g style="mix-blend-mode: multiply;" class="link"><path stroke-width="1.4543339150668992" stroke="#bab0ab" d="M305,353.1035485747529C447.5,353.1035485747529,447.5,121.32344386271087,590,121.32344386271087"></path></g><g style="mix-blend-mode: multiply;" class="link"><path stroke-width="1.4543339150668992" stroke="#f28e2c" d="M305,195.15125072716702C447.5,195.15125072716702,447.5,357.7108784176846,590,357.7108784176846"></path></g><g style="mix-blend-mode: multiply;" class="link"><path stroke-width="1.4543339150668992" stroke="#bab0ab" d="M305,350.19488074461907C447.5,350.19488074461907,447.5,37.681791739383364,590,37.681791739383364"></path></g><g style="mix-blend-mode: multiply;" class="link"><path stroke-width="1.4543339150668992" stroke="#f28e2c" d="M10,271.4223385689354C152.5,271.4223385689354,152.5,78.03955788248983,295,78.03955788248983"></path></g><g style="mix-blend-mode: multiply;" class="link"><path stroke-width="1.4543339150668992" stroke="#4e79a7" d="M10,68.23734729493891C152.5,68.23734729493891,152.5,380.73007562536367,295,380.73007562536367"></path></g><g style="mix-blend-mode: multiply;" class="link"><path stroke-width="1.4543339150668992" stroke="#ff9da7" d="M10,232.67597440372313C152.5,232.67597440372313,152.5,359.6916812100059,295,359.6916812100059"></path></g><g style="mix-blend-mode: multiply;" class="link"><path stroke-width="1.4543339150668992" stroke="#59a14f" d="M305,304.9912739965096C447.5,304.9912739965096,447.5,118.41477603257708,590,118.41477603257708"></path></g><g style="mix-blend-mode: multiply;" class="link"><path stroke-width="1.4543339150668992" stroke="#59a14f" d="M10,117.99883653286795C152.5,117.99883653286795,152.5,334.3775450843515,295,334.3775450843515"></path></g><g style="mix-blend-mode: multiply;" class="link"><path stroke-width="1.4543339150668992" stroke="#e15759" d="M305,143.42641070389766C447.5,143.42641070389766,447.5,389.34554973821974,590,389.34554973821974"></path></g><g style="mix-blend-mode: multiply;" class="link"><path stroke-width="1.4543339150668992" stroke="#bab0ab" d="M305,360.54973821989546C447.5,360.54973821989546,447.5,268.8365328679465,590,268.8365328679465"></path></g><g style="mix-blend-mode: multiply;" class="link"><path stroke-width="1.4543339150668992" stroke="#af7aa1" d="M305,334.3775450843515C447.5,334.3775450843515,447.5,171.01221640488654,590,171.01221640488654"></path></g><g style="mix-blend-mode: multiply;" class="link"><path stroke-width="1.4543339150668992" stroke="#ff9da7" d="M10,229.7673065735893C152.5,229.7673065735893,152.5,315.65154159395,295,315.65154159395"></path></g><g style="mix-blend-mode: multiply;" class="link"><path stroke-width="1.4543339150668992" stroke="#ff9da7" d="M10,343.53112274578245C152.5,343.53112274578245,152.5,392.68470040721365,295,392.68470040721365"></path></g><g style="mix-blend-mode: multiply;" class="link"><path stroke-width="1.4543339150668992" stroke="#ff9da7" d="M10,234.13030831879004C152.5,234.13030831879004,152.5,388.3216986620129,295,388.3216986620129"></path></g><g style="mix-blend-mode: multiply;" class="link"><path stroke-width="1.4543339150668992" stroke="#9c755f" d="M305,393.4554973821991C447.5,393.4554973821991,447.5,327.18150087260034,590,327.18150087260034"></path></g><g style="mix-blend-mode: multiply;" class="link"><path stroke-width="1.4543339150668992" stroke="#9c755f" d="M305,394.909831297266C447.5,394.909831297266,447.5,344.80221058755086,590,344.80221058755086"></path></g><g style="mix-blend-mode: multiply;" class="link"><path stroke-width="1.4543339150668992" stroke="#e15759" d="M305,136.1547411285631C447.5,136.1547411285631,447.5,299.2059336823735,590,299.2059336823735"></path></g><g style="mix-blend-mode: multiply;" class="link"><path stroke-width="1.4543339150668992" stroke="#af7aa1" d="M10,182.18731820826062C152.5,182.18731820826062,152.5,314.1972076788831,295,314.1972076788831"></path></g><g style="mix-blend-mode: multiply;" class="link"><path stroke-width="1.4543339150668992" stroke="#af7aa1" d="M305,335.8318789994184C447.5,335.8318789994184,447.5,224.6218731820826,590,224.6218731820826"></path></g><g style="mix-blend-mode: multiply;" class="link"><path stroke-width="1.4543339150668992" stroke="#f28e2c" d="M10,290.9104130308319C152.5,290.9104130308319,152.5,362.60034904013975,295,362.60034904013975"></path></g><g style="mix-blend-mode: multiply;" class="link"><path stroke-width="1.4543339150668992" stroke="#9c755f" d="M305,388.3362420011636C447.5,388.3362420011636,447.5,287.7515997673066,590,287.7515997673066"></path></g><g style="mix-blend-mode: multiply;" class="link"><path stroke-width="1.4543339150668992" stroke="#59a14f" d="M305,303.5369400814427C447.5,303.5369400814427,447.5,79.74985456660849,590,79.74985456660849"></path></g><g style="mix-blend-mode: multiply;" class="link"><path stroke-width="1.4543339150668992" stroke="#e15759" d="M305,137.60907504363C447.5,137.60907504363,447.5,324.12739965095983,590,324.12739965095983"></path></g><g style="mix-blend-mode: multiply;" class="link"><path stroke-width="1.4543339150668992" stroke="#e15759" d="M305,141.97207678883075C447.5,141.97207678883075,447.5,373.5282140779522,590,373.5282140779522"></path></g><g style="mix-blend-mode: multiply;" class="link"><path stroke-width="1.4543339150668992" stroke="#ff9da7" d="M10,335.18324607329845C152.5,335.18324607329845,152.5,80.94822571262362,295,80.94822571262362"></path></g><g style="mix-blend-mode: multiply;" class="link"><path stroke-width="1.4543339150668992" stroke="#bab0ab" d="M305,351.649214659686C447.5,351.649214659686,447.5,81.20418848167539,590,81.20418848167539"></path></g><g style="mix-blend-mode: multiply;" class="link"><path stroke-width="1.4543339150668992" stroke="#4e79a7" d="M10,62.69633507853403C152.5,62.69633507853403,152.5,332.92321116928457,295,332.92321116928457"></path></g><g style="mix-blend-mode: multiply;" class="link"><path stroke-width="1.4543339150668992" stroke="#f28e2c" d="M10,292.3647469458988C152.5,292.3647469458988,152.5,389.77603257707983,295,389.77603257707983"></path></g><g style="mix-blend-mode: multiply;" class="link"><path stroke-width="1.4543339150668992" stroke="#af7aa1" d="M10,187.61198371146017C152.5,187.61198371146017,152.5,386.867364746946,295,386.867364746946"></path></g><g style="mix-blend-mode: multiply;" class="link"><path stroke-width="1.4543339150668992" stroke="#9c755f" d="M305,380.73007562536367C447.5,380.73007562536367,447.5,39.13612565445026,590,39.13612565445026"></path></g><g style="mix-blend-mode: multiply;" class="link"><path stroke-width="1.4543339150668992" stroke="#f28e2c" d="M305,169.49680046538688C447.5,169.49680046538688,447.5,188.69109947643977,590,188.69109947643977"></path></g><g style="mix-blend-mode: multiply;" class="link"><path stroke-width="1.4543339150668992" stroke="#af7aa1" d="M10,183.64165212332753C152.5,183.64165212332753,152.5,335.8318789994184,295,335.8318789994184"></path></g><g style="mix-blend-mode: multiply;" class="link"><path stroke-width="1.4543339150668992" stroke="#9c755f" d="M305,386.8819080860967C447.5,386.8819080860967,447.5,227.6323443862711,590,227.6323443862711"></path></g><g style="mix-blend-mode: multiply;" class="link"><path stroke-width="1.4543339150668992" stroke="#bab0ab" d="M305,364.9127399650962C447.5,364.9127399650962,447.5,343.34787667248395,590,343.34787667248395"></path></g><g style="mix-blend-mode: multiply;" class="link"><path stroke-width="1.4543339150668992" stroke="#e15759" d="M305,139.06340895869693C447.5,139.06340895869693,447.5,338.6358347876672,590,338.6358347876672"></path></g><g style="mix-blend-mode: multiply;" class="link"><path stroke-width="1.4543339150668992" stroke="#9c755f" d="M305,399.27283304246674C447.5,399.27283304246674,447.5,396.6463059918556,590,396.6463059918556"></path></g><g style="mix-blend-mode: multiply;" class="link"><path stroke-width="1.4543339150668992" stroke="#f28e2c" d="M10,289.45607911576496C152.5,289.45607911576496,152.5,318.56020942408384,295,318.56020942408384"></path></g><g style="mix-blend-mode: multiply;" class="link"><path stroke-width="1.4543339150668992" stroke="#e15759" d="M305,140.51774287376384C447.5,140.51774287376384,447.5,356.2565445026177,590,356.2565445026177"></path></g><g style="mix-blend-mode: multiply;" class="link"><path stroke-width="1.4543339150668992" stroke="#59a14f" d="M305,316.11692844677145C447.5,316.11692844677145,447.5,265.9278650378127,590,265.9278650378127"></path></g><g style="mix-blend-mode: multiply;" class="link"><path stroke-width="1.4543339150668992" stroke="#ff9da7" d="M10,342.07678883071554C152.5,342.07678883071554,152.5,321.46887725421766,295,321.46887725421766"></path></g><g style="mix-blend-mode: multiply;" class="link"><path stroke-width="1.4543339150668992" stroke="#76b7b2" d="M10,245.58464223385687C152.5,245.58464223385687,152.5,76.58522396742293,295,76.58522396742293"></path></g><g style="mix-blend-mode: multiply;" class="link"><path stroke-width="1.4543339150668992" stroke="#f28e2c" d="M305,196.60558464223394C447.5,196.60558464223394,447.5,374.9825479930191,590,374.9825479930191"></path></g><g style="mix-blend-mode: multiply;" class="link"><path stroke-width="1.4543339150668992" stroke="#59a14f" d="M305,317.57126236183836C447.5,317.57126236183836,447.5,341.89354275741704,590,341.89354275741704"></path></g><g style="mix-blend-mode: multiply;" class="link"><path stroke-width="1.4543339150668992" stroke="#9c755f" d="M305,382.1844095404306C447.5,382.1844095404306,447.5,82.65852239674228,590,82.65852239674228"></path></g><g style="mix-blend-mode: multiply;" class="link"><path stroke-width="1.4543339150668992" stroke="#af7aa1" d="M305,332.92321116928457C447.5,332.92321116928457,447.5,119.86910994764398,590,119.86910994764398"></path></g><g style="mix-blend-mode: multiply;" class="link"><path stroke-width="1.4543339150668992" stroke="#e15759" d="M10,303.81908086096564C152.5,303.81908086096564,152.5,79.49389179755673,295,79.49389179755673"></path></g><g style="mix-blend-mode: multiply;" class="link"><path stroke-width="1.4543339150668992" stroke="#bab0ab" d="M305,359.09540430482855C447.5,359.09540430482855,447.5,243.94415357766147,590,243.94415357766147"></path></g><g style="mix-blend-mode: multiply;" class="link"><path stroke-width="1.4543339150668992" stroke="#bab0ab" d="M305,362.00407213496237C447.5,362.00407213496237,447.5,286.29726585223966,590,286.29726585223966"></path></g><g style="mix-blend-mode: multiply;" class="link"><path stroke-width="1.4543339150668992" stroke="#9c755f" d="M305,396.3641652123329C447.5,396.3641652123329,447.5,362.07388016288536,590,362.07388016288536"></path></g><g style="mix-blend-mode: multiply;" class="link"><path stroke-width="1.4543339150668992" stroke="#e15759" d="M305,103.25770796974986C447.5,103.25770796974986,447.5,187.23676556137286,590,187.23676556137286"></path></g><g style="mix-blend-mode: multiply;" class="link"><path stroke-width="1.4543339150668992" stroke="#59a14f" d="M305,320.4799301919722C447.5,320.4799301919722,447.5,392.2833042466549,590,392.2833042466549"></path></g><g style="mix-blend-mode: multiply;" class="link"><path stroke-width="1.4543339150668992" stroke="#59a14f" d="M305,319.0255962769053C447.5,319.0255962769053,447.5,359.16521233275154,590,359.16521233275154"></path></g><g style="mix-blend-mode: multiply;" class="link"><path stroke-width="1.4543339150668992" stroke="#e15759" d="M10,320.8202443280977C152.5,320.8202443280977,152.5,320.01454333915075,295,320.01454333915075"></path></g><g style="mix-blend-mode: multiply;" class="link"><path stroke-width="1.4543339150668992" stroke="#e15759" d="M10,323.72891215823154C152.5,323.72891215823154,152.5,391.23036649214674,295,391.23036649214674"></path></g><g style="mix-blend-mode: multiply;" class="link"><path stroke-width="1.4543339150668992" stroke="#e15759" d="M10,322.2745782431646C152.5,322.2745782431646,152.5,364.05468295520666,295,364.05468295520666"></path></g><g style="mix-blend-mode: multiply;" class="link"><path stroke-width="1.4543339150668992" stroke="#bab0ab" d="M305,367.82140779523C447.5,367.82140779523,447.5,376.43688190808604,590,376.43688190808604"></path></g><g style="mix-blend-mode: multiply;" class="link"><path stroke-width="1.4543339150668992" stroke="#bab0ab" d="M305,366.3670738801631C447.5,366.3670738801631,447.5,360.61954624781845,590,360.61954624781845"></path></g><g style="mix-blend-mode: multiply;" class="link"><path stroke-width="1.4543339150668992" stroke="#ff9da7" d="M10,231.22164048865622C152.5,231.22164048865622,152.5,337.2862129144853,295,337.2862129144853"></path></g><g style="mix-blend-mode: multiply;" class="link"><path stroke-width="1.4543339150668992" stroke="#bab0ab" d="M305,363.4584060500293C447.5,363.4584060500293,447.5,309.0081442699244,590,309.0081442699244"></path></g><g style="mix-blend-mode: multiply;" class="link"><path stroke-width="1.4543339150668992" stroke="#bab0ab" d="M305,369.2757417102969C447.5,369.2757417102969,447.5,395.1919720767887,590,395.1919720767887"></path></g><g style="mix-blend-mode: multiply;" class="link"><path stroke-width="1.4543339150668992" stroke="#af7aa1" d="M305,337.2862129144853C447.5,337.2862129144853,447.5,267.3821989528796,590,267.3821989528796"></path></g><g style="mix-blend-mode: multiply;" class="link"><path stroke-width="1.4543339150668992" stroke="#76b7b2" d="M10,258.5136707388016C152.5,258.5136707388016,152.5,317.1058755090169,295,317.1058755090169"></path></g><g style="mix-blend-mode: multiply;" class="link"><path stroke-width="1.4543339150668992" stroke="#76b7b2" d="M10,259.9680046538685C152.5,259.9680046538685,152.5,361.14601512507284,295,361.14601512507284"></path></g><g style="mix-blend-mode: multiply;" class="link"><path stroke-width="1.4543339150668992" stroke="#af7aa1" d="M305,338.7405468295522C447.5,338.7405468295522,447.5,393.7376381617218,590,393.7376381617218"></path></g><g style="mix-blend-mode: multiply;" class="link"><path stroke-width="1.4543339150668992" stroke="#9c755f" d="M305,383.6387434554975C447.5,383.6387434554975,447.5,122.77777777777777,590,122.77777777777777"></path></g><g style="mix-blend-mode: multiply;" class="link"><path stroke-width="1.4543339150668992" stroke="#9c755f" d="M305,397.81849912739983C447.5,397.81849912739983,447.5,377.89121582315295,590,377.89121582315295"></path></g></g></svg>